<mxfile host="app.diagrams.net" modified="2021-09-02T03:12:22.897Z" agent="5.0 (Windows NT 10.0; Win64; x64) AppleWebKit/537.36 (KHTML, like Gecko) Chrome/92.0.4515.159 Safari/537.36 Edg/92.0.902.84" etag="bUWUKX5-zQ96dVsHU5HH" version="14.9.3" type="github">
  <diagram id="AY7layxIuyS85t1iLSE1" name="第 1 页">
    <mxGraphModel dx="2105" dy="579" grid="1" gridSize="10" guides="1" tooltips="1" connect="1" arrows="1" fold="1" page="1" pageScale="1" pageWidth="827" pageHeight="1169" math="0" shadow="0">
      <root>
        <mxCell id="0" />
        <mxCell id="1" parent="0" />
        <mxCell id="F6BCsV-9V7zWYRgmSUDK-1" value="" style="swimlane;startSize=48;" parent="1" vertex="1">
          <mxGeometry x="620" y="510" width="530" height="590" as="geometry">
            <mxRectangle x="320" y="460" width="50" height="40" as="alternateBounds" />
          </mxGeometry>
        </mxCell>
        <mxCell id="F6BCsV-9V7zWYRgmSUDK-2" value="IOC" style="text;html=1;align=center;verticalAlign=middle;resizable=0;points=[];autosize=1;strokeColor=none;" parent="F6BCsV-9V7zWYRgmSUDK-1" vertex="1">
          <mxGeometry x="245" y="10" width="40" height="20" as="geometry" />
        </mxCell>
        <mxCell id="F6BCsV-9V7zWYRgmSUDK-3" value="bean" style="rounded=0;whiteSpace=wrap;html=1;" parent="F6BCsV-9V7zWYRgmSUDK-1" vertex="1">
          <mxGeometry x="50" y="70" width="60" height="35" as="geometry" />
        </mxCell>
        <mxCell id="F6BCsV-9V7zWYRgmSUDK-5" value="bean" style="rounded=0;whiteSpace=wrap;html=1;" parent="F6BCsV-9V7zWYRgmSUDK-1" vertex="1">
          <mxGeometry x="60" y="85" width="60" height="35" as="geometry" />
        </mxCell>
        <mxCell id="F6BCsV-9V7zWYRgmSUDK-6" value="bean" style="rounded=0;whiteSpace=wrap;html=1;" parent="F6BCsV-9V7zWYRgmSUDK-1" vertex="1">
          <mxGeometry x="70" y="95" width="60" height="35" as="geometry" />
        </mxCell>
        <mxCell id="F6BCsV-9V7zWYRgmSUDK-4" value="bean" style="rounded=0;whiteSpace=wrap;html=1;" parent="F6BCsV-9V7zWYRgmSUDK-1" vertex="1">
          <mxGeometry x="80" y="97.5" width="60" height="35" as="geometry" />
        </mxCell>
        <mxCell id="F6BCsV-9V7zWYRgmSUDK-80" style="edgeStyle=orthogonalEdgeStyle;rounded=0;orthogonalLoop=1;jettySize=auto;html=1;exitX=0.5;exitY=1;exitDx=0;exitDy=0;" parent="F6BCsV-9V7zWYRgmSUDK-1" source="F6BCsV-9V7zWYRgmSUDK-74" target="F6BCsV-9V7zWYRgmSUDK-75" edge="1">
          <mxGeometry relative="1" as="geometry" />
        </mxCell>
        <mxCell id="F6BCsV-9V7zWYRgmSUDK-74" value="普通对象&lt;br&gt;反射进行实例化" style="rounded=0;whiteSpace=wrap;html=1;" parent="F6BCsV-9V7zWYRgmSUDK-1" vertex="1">
          <mxGeometry x="190" y="120" width="160" height="60" as="geometry" />
        </mxCell>
        <mxCell id="F6BCsV-9V7zWYRgmSUDK-79" style="edgeStyle=orthogonalEdgeStyle;rounded=0;orthogonalLoop=1;jettySize=auto;html=1;exitX=0.5;exitY=1;exitDx=0;exitDy=0;" parent="F6BCsV-9V7zWYRgmSUDK-1" source="F6BCsV-9V7zWYRgmSUDK-75" target="F6BCsV-9V7zWYRgmSUDK-76" edge="1">
          <mxGeometry relative="1" as="geometry" />
        </mxCell>
        <mxCell id="F6BCsV-9V7zWYRgmSUDK-75" value="填充属性&lt;br&gt;@AutoWired&lt;br&gt;@Value" style="rounded=0;whiteSpace=wrap;html=1;" parent="F6BCsV-9V7zWYRgmSUDK-1" vertex="1">
          <mxGeometry x="190" y="250" width="160" height="60" as="geometry" />
        </mxCell>
        <mxCell id="F6BCsV-9V7zWYRgmSUDK-78" value="put" style="edgeStyle=orthogonalEdgeStyle;rounded=0;orthogonalLoop=1;jettySize=auto;html=1;exitX=0.5;exitY=1;exitDx=0;exitDy=0;startArrow=none;" parent="F6BCsV-9V7zWYRgmSUDK-1" source="F6BCsV-9V7zWYRgmSUDK-88" target="F6BCsV-9V7zWYRgmSUDK-77" edge="1">
          <mxGeometry relative="1" as="geometry" />
        </mxCell>
        <mxCell id="F6BCsV-9V7zWYRgmSUDK-76" value="初始化&lt;br&gt;init destroy" style="rounded=0;whiteSpace=wrap;html=1;" parent="F6BCsV-9V7zWYRgmSUDK-1" vertex="1">
          <mxGeometry x="190" y="370" width="160" height="60" as="geometry" />
        </mxCell>
        <mxCell id="F6BCsV-9V7zWYRgmSUDK-77" value="一级缓存&lt;br&gt;BeanMap" style="rounded=0;whiteSpace=wrap;html=1;" parent="F6BCsV-9V7zWYRgmSUDK-1" vertex="1">
          <mxGeometry x="190" y="500" width="160" height="60" as="geometry" />
        </mxCell>
        <mxCell id="F6BCsV-9V7zWYRgmSUDK-82" value="" style="endArrow=none;dashed=1;html=1;dashPattern=1 3;strokeWidth=2;entryX=0;entryY=0.75;entryDx=0;entryDy=0;" parent="F6BCsV-9V7zWYRgmSUDK-1" target="F6BCsV-9V7zWYRgmSUDK-81" edge="1">
          <mxGeometry width="50" height="50" relative="1" as="geometry">
            <mxPoint x="350" y="410" as="sourcePoint" />
            <mxPoint x="400" y="360" as="targetPoint" />
          </mxGeometry>
        </mxCell>
        <mxCell id="F6BCsV-9V7zWYRgmSUDK-83" value="beanPostProcessor" style="rounded=0;whiteSpace=wrap;html=1;" parent="F6BCsV-9V7zWYRgmSUDK-1" vertex="1">
          <mxGeometry x="207" y="80" width="115" height="40" as="geometry" />
        </mxCell>
        <mxCell id="F6BCsV-9V7zWYRgmSUDK-84" value="beanPostProcessor" style="rounded=0;whiteSpace=wrap;html=1;" parent="F6BCsV-9V7zWYRgmSUDK-1" vertex="1">
          <mxGeometry x="207.5" y="170" width="115" height="40" as="geometry" />
        </mxCell>
        <mxCell id="F6BCsV-9V7zWYRgmSUDK-85" value="beanPostProcessor" style="rounded=0;whiteSpace=wrap;html=1;" parent="F6BCsV-9V7zWYRgmSUDK-1" vertex="1">
          <mxGeometry x="212.5" y="220" width="115" height="40" as="geometry" />
        </mxCell>
        <mxCell id="F6BCsV-9V7zWYRgmSUDK-86" value="beanPostProcessor" style="rounded=0;whiteSpace=wrap;html=1;" parent="F6BCsV-9V7zWYRgmSUDK-1" vertex="1">
          <mxGeometry x="207" y="300" width="115" height="40" as="geometry" />
        </mxCell>
        <mxCell id="F6BCsV-9V7zWYRgmSUDK-87" value="beanPostProcessor" style="rounded=0;whiteSpace=wrap;html=1;" parent="F6BCsV-9V7zWYRgmSUDK-1" vertex="1">
          <mxGeometry x="207" y="350" width="115" height="40" as="geometry" />
        </mxCell>
        <mxCell id="F6BCsV-9V7zWYRgmSUDK-88" value="beanPostProcessor" style="rounded=0;whiteSpace=wrap;html=1;" parent="F6BCsV-9V7zWYRgmSUDK-1" vertex="1">
          <mxGeometry x="207.5" y="415" width="115" height="40" as="geometry" />
        </mxCell>
        <mxCell id="F6BCsV-9V7zWYRgmSUDK-89" value="" style="edgeStyle=orthogonalEdgeStyle;rounded=0;orthogonalLoop=1;jettySize=auto;html=1;exitX=0.5;exitY=1;exitDx=0;exitDy=0;endArrow=none;" parent="F6BCsV-9V7zWYRgmSUDK-1" source="F6BCsV-9V7zWYRgmSUDK-76" target="F6BCsV-9V7zWYRgmSUDK-88" edge="1">
          <mxGeometry relative="1" as="geometry">
            <mxPoint x="890" y="940" as="sourcePoint" />
            <mxPoint x="890" y="1010" as="targetPoint" />
          </mxGeometry>
        </mxCell>
        <mxCell id="F6BCsV-9V7zWYRgmSUDK-90" value="beanPostProcessor" style="rounded=0;whiteSpace=wrap;html=1;" parent="F6BCsV-9V7zWYRgmSUDK-1" vertex="1">
          <mxGeometry x="207.5" y="200" width="115" height="40" as="geometry" />
        </mxCell>
        <mxCell id="F6BCsV-9V7zWYRgmSUDK-108" value="" style="endArrow=none;dashed=1;html=1;dashPattern=1 3;strokeWidth=2;" parent="F6BCsV-9V7zWYRgmSUDK-1" target="F6BCsV-9V7zWYRgmSUDK-107" edge="1">
          <mxGeometry width="50" height="50" relative="1" as="geometry">
            <mxPoint x="330" y="440" as="sourcePoint" />
            <mxPoint x="400" y="450" as="targetPoint" />
          </mxGeometry>
        </mxCell>
        <mxCell id="F6BCsV-9V7zWYRgmSUDK-9" style="edgeStyle=orthogonalEdgeStyle;rounded=0;orthogonalLoop=1;jettySize=auto;html=1;exitX=1;exitY=0.5;exitDx=0;exitDy=0;" parent="1" source="F6BCsV-9V7zWYRgmSUDK-8" edge="1">
          <mxGeometry relative="1" as="geometry">
            <mxPoint x="890" y="520" as="targetPoint" />
          </mxGeometry>
        </mxCell>
        <mxCell id="F6BCsV-9V7zWYRgmSUDK-10" value="创建与获取bean" style="edgeLabel;html=1;align=center;verticalAlign=middle;resizable=0;points=[];" parent="F6BCsV-9V7zWYRgmSUDK-9" vertex="1" connectable="0">
          <mxGeometry x="-0.6848" relative="1" as="geometry">
            <mxPoint x="68" as="offset" />
          </mxGeometry>
        </mxCell>
        <mxCell id="F6BCsV-9V7zWYRgmSUDK-72" value="getBean" style="edgeLabel;html=1;align=center;verticalAlign=middle;resizable=0;points=[];" parent="F6BCsV-9V7zWYRgmSUDK-9" vertex="1" connectable="0">
          <mxGeometry x="-0.7338" y="-1" relative="1" as="geometry">
            <mxPoint as="offset" />
          </mxGeometry>
        </mxCell>
        <mxCell id="F6BCsV-9V7zWYRgmSUDK-8" value="beanfactory" style="rounded=0;whiteSpace=wrap;html=1;" parent="1" vertex="1">
          <mxGeometry x="390" y="350" width="120" height="60" as="geometry" />
        </mxCell>
        <mxCell id="F6BCsV-9V7zWYRgmSUDK-24" style="edgeStyle=orthogonalEdgeStyle;rounded=0;orthogonalLoop=1;jettySize=auto;html=1;exitX=1;exitY=0.5;exitDx=0;exitDy=0;entryX=0;entryY=0.5;entryDx=0;entryDy=0;" parent="1" source="F6BCsV-9V7zWYRgmSUDK-11" target="F6BCsV-9V7zWYRgmSUDK-16" edge="1">
          <mxGeometry relative="1" as="geometry">
            <mxPoint x="410" y="830" as="targetPoint" />
          </mxGeometry>
        </mxCell>
        <mxCell id="F6BCsV-9V7zWYRgmSUDK-26" value="ClassPathXmlApplicationContext" style="edgeLabel;html=1;align=center;verticalAlign=middle;resizable=0;points=[];" parent="F6BCsV-9V7zWYRgmSUDK-24" vertex="1" connectable="0">
          <mxGeometry x="-0.2836" y="2" relative="1" as="geometry">
            <mxPoint x="-15" y="7" as="offset" />
          </mxGeometry>
        </mxCell>
        <mxCell id="F6BCsV-9V7zWYRgmSUDK-11" value="xml配置文件" style="rounded=0;whiteSpace=wrap;html=1;" parent="1" vertex="1">
          <mxGeometry x="-390" y="850" width="120" height="60" as="geometry" />
        </mxCell>
        <mxCell id="F6BCsV-9V7zWYRgmSUDK-25" style="edgeStyle=orthogonalEdgeStyle;rounded=0;orthogonalLoop=1;jettySize=auto;html=1;exitX=1;exitY=0.5;exitDx=0;exitDy=0;entryX=0;entryY=0.5;entryDx=0;entryDy=0;" parent="1" source="F6BCsV-9V7zWYRgmSUDK-12" target="F6BCsV-9V7zWYRgmSUDK-16" edge="1">
          <mxGeometry relative="1" as="geometry">
            <mxPoint x="390" y="910" as="targetPoint" />
          </mxGeometry>
        </mxCell>
        <mxCell id="F6BCsV-9V7zWYRgmSUDK-27" value="AnnonationConfigApplicationContext" style="edgeLabel;html=1;align=center;verticalAlign=middle;resizable=0;points=[];" parent="F6BCsV-9V7zWYRgmSUDK-25" vertex="1" connectable="0">
          <mxGeometry x="-0.4046" y="-3" relative="1" as="geometry">
            <mxPoint x="-10" y="5" as="offset" />
          </mxGeometry>
        </mxCell>
        <mxCell id="F6BCsV-9V7zWYRgmSUDK-12" value="注解" style="rounded=0;whiteSpace=wrap;html=1;" parent="1" vertex="1">
          <mxGeometry x="-390" y="930" width="120" height="60" as="geometry" />
        </mxCell>
        <mxCell id="F6BCsV-9V7zWYRgmSUDK-22" style="edgeStyle=orthogonalEdgeStyle;rounded=0;orthogonalLoop=1;jettySize=auto;html=1;exitX=0.5;exitY=0;exitDx=0;exitDy=0;entryX=0.5;entryY=1;entryDx=0;entryDy=0;" parent="1" source="F6BCsV-9V7zWYRgmSUDK-16" target="F6BCsV-9V7zWYRgmSUDK-8" edge="1">
          <mxGeometry relative="1" as="geometry" />
        </mxCell>
        <mxCell id="F6BCsV-9V7zWYRgmSUDK-23" value="将bean定义解析为bean" style="edgeLabel;html=1;align=center;verticalAlign=middle;resizable=0;points=[];" parent="F6BCsV-9V7zWYRgmSUDK-22" vertex="1" connectable="0">
          <mxGeometry x="0.1573" y="-3" relative="1" as="geometry">
            <mxPoint as="offset" />
          </mxGeometry>
        </mxCell>
        <mxCell id="F6BCsV-9V7zWYRgmSUDK-16" value="beanDefinitionMap" style="swimlane;" parent="1" vertex="1">
          <mxGeometry x="365" y="560" width="170" height="150" as="geometry" />
        </mxCell>
        <mxCell id="F6BCsV-9V7zWYRgmSUDK-17" value="beanDefinition&lt;br&gt;bean定义" style="rounded=0;whiteSpace=wrap;html=1;" parent="F6BCsV-9V7zWYRgmSUDK-16" vertex="1">
          <mxGeometry x="42.5" y="35" width="85" height="45" as="geometry" />
        </mxCell>
        <mxCell id="F6BCsV-9V7zWYRgmSUDK-18" value="beanDefinition&lt;br&gt;bean定义" style="rounded=0;whiteSpace=wrap;html=1;" parent="1" vertex="1">
          <mxGeometry x="417.5" y="605" width="85" height="45" as="geometry" />
        </mxCell>
        <mxCell id="F6BCsV-9V7zWYRgmSUDK-19" value="beanDefinition&lt;br&gt;bean定义" style="rounded=0;whiteSpace=wrap;html=1;" parent="1" vertex="1">
          <mxGeometry x="427.5" y="615" width="85" height="45" as="geometry" />
        </mxCell>
        <mxCell id="F6BCsV-9V7zWYRgmSUDK-42" value="applicationContext" style="swimlane;" parent="1" vertex="1">
          <mxGeometry x="-232.5" y="790" width="440" height="300" as="geometry" />
        </mxCell>
        <mxCell id="F6BCsV-9V7zWYRgmSUDK-50" value="BeanDefinition" style="rounded=0;whiteSpace=wrap;html=1;" parent="F6BCsV-9V7zWYRgmSUDK-42" vertex="1">
          <mxGeometry x="272.5" y="60" width="140" height="35" as="geometry" />
        </mxCell>
        <mxCell id="F6BCsV-9V7zWYRgmSUDK-51" value="BeanDefinitionRegistry" style="rounded=0;whiteSpace=wrap;html=1;" parent="F6BCsV-9V7zWYRgmSUDK-42" vertex="1">
          <mxGeometry x="272.5" y="60" width="140" height="35" as="geometry" />
        </mxCell>
        <mxCell id="F6BCsV-9V7zWYRgmSUDK-52" value="z将其注册为bean定义" style="edgeStyle=orthogonalEdgeStyle;rounded=0;orthogonalLoop=1;jettySize=auto;html=1;exitX=0.5;exitY=0;exitDx=0;exitDy=0;entryX=0.5;entryY=1;entryDx=0;entryDy=0;" parent="F6BCsV-9V7zWYRgmSUDK-42" source="F6BCsV-9V7zWYRgmSUDK-53" target="F6BCsV-9V7zWYRgmSUDK-51" edge="1">
          <mxGeometry relative="1" as="geometry" />
        </mxCell>
        <mxCell id="F6BCsV-9V7zWYRgmSUDK-53" value="BeanDefinitionScanner" style="rounded=0;whiteSpace=wrap;html=1;" parent="F6BCsV-9V7zWYRgmSUDK-42" vertex="1">
          <mxGeometry x="272.5" y="115" width="140" height="35" as="geometry" />
        </mxCell>
        <mxCell id="F6BCsV-9V7zWYRgmSUDK-54" value="BeanDefinition" style="rounded=0;whiteSpace=wrap;html=1;" parent="F6BCsV-9V7zWYRgmSUDK-42" vertex="1">
          <mxGeometry x="272.5" y="175" width="140" height="35" as="geometry" />
        </mxCell>
        <mxCell id="F6BCsV-9V7zWYRgmSUDK-55" value="s扫描需要解析为bean定义的类" style="edgeStyle=orthogonalEdgeStyle;rounded=0;orthogonalLoop=1;jettySize=auto;html=1;exitX=0.5;exitY=0;exitDx=0;exitDy=0;entryX=0.5;entryY=1;entryDx=0;entryDy=0;" parent="F6BCsV-9V7zWYRgmSUDK-42" source="F6BCsV-9V7zWYRgmSUDK-56" target="F6BCsV-9V7zWYRgmSUDK-53" edge="1">
          <mxGeometry relative="1" as="geometry" />
        </mxCell>
        <mxCell id="F6BCsV-9V7zWYRgmSUDK-56" value="BeanDefinitionReader" style="rounded=0;whiteSpace=wrap;html=1;" parent="F6BCsV-9V7zWYRgmSUDK-42" vertex="1">
          <mxGeometry x="272.5" y="175" width="140" height="35" as="geometry" />
        </mxCell>
        <mxCell id="F6BCsV-9V7zWYRgmSUDK-59" value="事件注册" style="rounded=0;whiteSpace=wrap;html=1;" parent="F6BCsV-9V7zWYRgmSUDK-42" vertex="1">
          <mxGeometry x="52.5" y="240" width="107.5" height="30" as="geometry" />
        </mxCell>
        <mxCell id="F6BCsV-9V7zWYRgmSUDK-57" style="edgeStyle=orthogonalEdgeStyle;rounded=0;orthogonalLoop=1;jettySize=auto;html=1;exitX=0.5;exitY=1;exitDx=0;exitDy=0;" parent="1" source="F6BCsV-9V7zWYRgmSUDK-56" edge="1">
          <mxGeometry relative="1" as="geometry">
            <mxPoint x="-210" y="960" as="targetPoint" />
          </mxGeometry>
        </mxCell>
        <mxCell id="F6BCsV-9V7zWYRgmSUDK-58" value="读取配置" style="edgeLabel;html=1;align=center;verticalAlign=middle;resizable=0;points=[];" parent="F6BCsV-9V7zWYRgmSUDK-57" vertex="1" connectable="0">
          <mxGeometry x="-0.03" y="-2" relative="1" as="geometry">
            <mxPoint as="offset" />
          </mxGeometry>
        </mxCell>
        <mxCell id="F6BCsV-9V7zWYRgmSUDK-65" style="edgeStyle=orthogonalEdgeStyle;rounded=0;orthogonalLoop=1;jettySize=auto;html=1;exitX=1;exitY=0.5;exitDx=0;exitDy=0;entryX=0.082;entryY=0.004;entryDx=0;entryDy=0;entryPerimeter=0;" parent="1" source="F6BCsV-9V7zWYRgmSUDK-60" target="F6BCsV-9V7zWYRgmSUDK-16" edge="1">
          <mxGeometry relative="1" as="geometry" />
        </mxCell>
        <mxCell id="F6BCsV-9V7zWYRgmSUDK-67" value="修改beanDefinition" style="edgeLabel;html=1;align=center;verticalAlign=middle;resizable=0;points=[];" parent="F6BCsV-9V7zWYRgmSUDK-65" vertex="1" connectable="0">
          <mxGeometry x="-0.3574" y="-2" relative="1" as="geometry">
            <mxPoint as="offset" />
          </mxGeometry>
        </mxCell>
        <mxCell id="F6BCsV-9V7zWYRgmSUDK-60" value="beanFactoryPostProcessor" style="rounded=0;whiteSpace=wrap;html=1;" parent="1" vertex="1">
          <mxGeometry x="-50" y="460" width="220" height="60" as="geometry" />
        </mxCell>
        <mxCell id="F6BCsV-9V7zWYRgmSUDK-66" style="edgeStyle=orthogonalEdgeStyle;rounded=0;orthogonalLoop=1;jettySize=auto;html=1;exitX=1;exitY=0.5;exitDx=0;exitDy=0;entryX=0;entryY=0.25;entryDx=0;entryDy=0;" parent="1" source="F6BCsV-9V7zWYRgmSUDK-61" target="F6BCsV-9V7zWYRgmSUDK-16" edge="1">
          <mxGeometry relative="1" as="geometry" />
        </mxCell>
        <mxCell id="F6BCsV-9V7zWYRgmSUDK-68" value="注册beanDefinition" style="edgeLabel;html=1;align=center;verticalAlign=middle;resizable=0;points=[];" parent="F6BCsV-9V7zWYRgmSUDK-66" vertex="1" connectable="0">
          <mxGeometry x="-0.4804" y="3" relative="1" as="geometry">
            <mxPoint as="offset" />
          </mxGeometry>
        </mxCell>
        <mxCell id="F6BCsV-9V7zWYRgmSUDK-61" value="beanDefinitionRegistryPostProcessor" style="rounded=0;whiteSpace=wrap;html=1;" parent="1" vertex="1">
          <mxGeometry x="-50" y="540" width="220" height="60" as="geometry" />
        </mxCell>
        <mxCell id="F6BCsV-9V7zWYRgmSUDK-73" value="beanPostProcessor" style="rounded=0;whiteSpace=wrap;html=1;" parent="1" vertex="1">
          <mxGeometry x="905" y="430" width="115" height="40" as="geometry" />
        </mxCell>
        <mxCell id="F6BCsV-9V7zWYRgmSUDK-93" value="BeanFactory 顶级接口，简单工厂的实现，用于获取或生产bean" style="shape=note;strokeWidth=2;fontSize=14;size=20;whiteSpace=wrap;html=1;fillColor=#fff2cc;strokeColor=#d6b656;fontColor=#666600;" parent="1" vertex="1">
          <mxGeometry x="365" y="250" width="530" height="80" as="geometry" />
        </mxCell>
        <mxCell id="F6BCsV-9V7zWYRgmSUDK-95" value="ApplicationContext 与BeanFactory有着相同的功能，但与其不同的是ApplicationContext功能更加完善，包括读取扫描配置文件，事件注册，国际化注册，扩展点的执行等" style="shape=note;strokeWidth=2;fontSize=14;size=20;whiteSpace=wrap;html=1;fillColor=#fff2cc;strokeColor=#d6b656;fontColor=#666600;" parent="1" vertex="1">
          <mxGeometry x="-232" y="1100" width="432" height="80" as="geometry" />
        </mxCell>
        <mxCell id="F6BCsV-9V7zWYRgmSUDK-96" value="BeanFactoryPostProcessor扩展点，此扩展点，可以修改已经注册了的BeanDefinition，其主要作用是用于解耦" style="shape=note;strokeWidth=2;fontSize=14;size=20;whiteSpace=wrap;html=1;fillColor=#fff2cc;strokeColor=#d6b656;fontColor=#666600;" parent="1" vertex="1">
          <mxGeometry x="-172.5" y="360" width="380" height="80" as="geometry" />
        </mxCell>
        <mxCell id="F6BCsV-9V7zWYRgmSUDK-97" value="BeanDefinitionRegistryPostProcessor扩展点，此扩展点，可以注册了的BeanDefinition，其主要作用是用于解耦，（例：ConfigurationClassPostProcessor，动态代理对象的注入等)" style="shape=note;strokeWidth=2;fontSize=14;size=20;whiteSpace=wrap;html=1;fillColor=#fff2cc;strokeColor=#d6b656;fontColor=#666600;" parent="1" vertex="1">
          <mxGeometry x="-450" y="530" width="380" height="80" as="geometry" />
        </mxCell>
        <mxCell id="F6BCsV-9V7zWYRgmSUDK-98" value="BeanPostProcessor主要处理bean在创建过程中的增加处理，比如AOP就是在最后一个BeanPostProcessor完成的" style="shape=note;strokeWidth=2;fontSize=14;size=20;whiteSpace=wrap;html=1;fillColor=#fff2cc;strokeColor=#d6b656;fontColor=#666600;" parent="1" vertex="1">
          <mxGeometry x="1030" y="420" width="290" height="60" as="geometry" />
        </mxCell>
        <mxCell id="F6BCsV-9V7zWYRgmSUDK-99" style="edgeStyle=orthogonalEdgeStyle;rounded=0;orthogonalLoop=1;jettySize=auto;html=1;exitX=0.5;exitY=1;exitDx=0;exitDy=0;" parent="1" source="F6BCsV-9V7zWYRgmSUDK-77" edge="1">
          <mxGeometry relative="1" as="geometry">
            <mxPoint x="890" y="1150" as="targetPoint" />
          </mxGeometry>
        </mxCell>
        <mxCell id="F6BCsV-9V7zWYRgmSUDK-103" value="" style="edgeStyle=orthogonalEdgeStyle;rounded=0;orthogonalLoop=1;jettySize=auto;html=1;" parent="1" source="F6BCsV-9V7zWYRgmSUDK-101" target="F6BCsV-9V7zWYRgmSUDK-102" edge="1">
          <mxGeometry relative="1" as="geometry" />
        </mxCell>
        <mxCell id="F6BCsV-9V7zWYRgmSUDK-101" value="getBean(&quot;name&quot;)" style="text;html=1;strokeColor=none;fillColor=none;align=center;verticalAlign=middle;whiteSpace=wrap;rounded=0;" parent="1" vertex="1">
          <mxGeometry x="870" y="1150" width="40" height="20" as="geometry" />
        </mxCell>
        <mxCell id="F6BCsV-9V7zWYRgmSUDK-102" value="map.get(&quot;name&quot;)" style="text;html=1;strokeColor=none;fillColor=none;align=center;verticalAlign=middle;whiteSpace=wrap;rounded=0;" parent="1" vertex="1">
          <mxGeometry x="970" y="1150" width="120" height="20" as="geometry" />
        </mxCell>
        <mxCell id="F6BCsV-9V7zWYRgmSUDK-105" value="IOC简单的加载过程，和其中部分主要组件" style="text;strokeColor=none;fillColor=none;html=1;fontSize=24;fontStyle=1;verticalAlign=middle;align=center;" parent="1" vertex="1">
          <mxGeometry x="-630" y="30" width="100" height="40" as="geometry" />
        </mxCell>
        <mxCell id="F6BCsV-9V7zWYRgmSUDK-111" value="" style="edgeStyle=orthogonalEdgeStyle;rounded=0;orthogonalLoop=1;jettySize=auto;html=1;" parent="1" source="F6BCsV-9V7zWYRgmSUDK-107" target="F6BCsV-9V7zWYRgmSUDK-110" edge="1">
          <mxGeometry relative="1" as="geometry" />
        </mxCell>
        <mxCell id="F6BCsV-9V7zWYRgmSUDK-116" style="edgeStyle=orthogonalEdgeStyle;rounded=0;orthogonalLoop=1;jettySize=auto;html=1;exitX=1;exitY=0.75;exitDx=0;exitDy=0;entryX=-0.026;entryY=0.655;entryDx=0;entryDy=0;entryPerimeter=0;" parent="1" source="F6BCsV-9V7zWYRgmSUDK-107" target="F6BCsV-9V7zWYRgmSUDK-114" edge="1">
          <mxGeometry relative="1" as="geometry" />
        </mxCell>
        <mxCell id="F6BCsV-9V7zWYRgmSUDK-107" value="AOP" style="rounded=0;whiteSpace=wrap;html=1;" parent="1" vertex="1">
          <mxGeometry x="1181" y="920" width="99" height="50" as="geometry" />
        </mxCell>
        <mxCell id="F6BCsV-9V7zWYRgmSUDK-81" value="执行各种Aware" style="rounded=0;whiteSpace=wrap;html=1;" parent="1" vertex="1">
          <mxGeometry x="1196" y="820" width="90" height="40" as="geometry" />
        </mxCell>
        <mxCell id="F6BCsV-9V7zWYRgmSUDK-110" value="CGLIB" style="whiteSpace=wrap;html=1;rounded=0;" parent="1" vertex="1">
          <mxGeometry x="1349.5" y="860" width="120" height="60" as="geometry" />
        </mxCell>
        <mxCell id="F6BCsV-9V7zWYRgmSUDK-114" value="JDK" style="whiteSpace=wrap;html=1;rounded=0;" parent="1" vertex="1">
          <mxGeometry x="1349.5" y="970" width="120" height="60" as="geometry" />
        </mxCell>
      </root>
    </mxGraphModel>
  </diagram>
</mxfile>
